<svg id="visual" viewBox="0 0 960 540" width="960" height="540" xmlns="http://www.w3.org/2000/svg" xmlns:xlink="http://www.w3.org/1999/xlink" version="1.1"><rect x="0" y="0" width="960" height="540" fill="#f2f4f6"></rect><defs><linearGradient id="grad1_0" x1="43.8%" y1="100%" x2="100%" y2="0%"><stop offset="14.444444444444446%" stop-color="#f2f4f6" stop-opacity="1"></stop><stop offset="85.55555555555554%" stop-color="#f2f4f6" stop-opacity="1"></stop></linearGradient></defs><defs><linearGradient id="grad2_0" x1="0%" y1="100%" x2="56.3%" y2="0%"><stop offset="14.444444444444446%" stop-color="#f2f4f6" stop-opacity="1"></stop><stop offset="85.55555555555554%" stop-color="#f2f4f6" stop-opacity="1"></stop></linearGradient></defs><g transform="translate(960, 540)"><path d="M-297 0C-272.4 -15.8 -247.8 -31.7 -235.4 -46.8C-223 -62 -222.7 -76.5 -220.8 -91.5C-218.9 -106.4 -215.2 -121.9 -215.4 -143.9C-215.5 -165.9 -219.4 -194.4 -207.9 -207.9C-196.4 -221.3 -169.4 -219.7 -150 -224.5C-130.7 -229.3 -118.9 -240.5 -105.2 -254.1C-91.5 -267.7 -75.8 -283.7 -57.9 -291.3C-40.1 -298.9 -20 -297.9 0 -297L0 0Z" fill="#AFC9DC"></path></g><g transform="translate(0, 0)"><path d="M297 0C298.2 20.5 299.5 40.9 291.3 57.9C283.1 74.9 265.5 88.4 256.8 106.4C248.1 124.3 248.3 146.7 233.6 156.1C219 165.5 189.4 162 176.8 176.8C164.2 191.5 168.5 224.5 156.1 233.6C143.8 242.8 114.7 228.2 95.7 231C76.6 233.7 67.5 253.9 53.3 267.8C39 281.7 19.5 289.3 0 297L0 0Z" fill="#AFC9DC"></path></g></svg>